HIERARCHY
ROOT Hips
{
	OFFSET 0.000000 0.000000 0.000000
	CHANNELS 6 Xposition Yposition Zposition Xrotation Yrotation Zrotation
	JOINT LeftUpLeg_virtual
	{
		OFFSET 0.000000 0.000000 0.000000
		CHANNELS 3 Xrotation Yrotation Zrotation
		JOINT LeftUpLeg
		{
			OFFSET 13.026900 -6.336304 -1.092800
			CHANNELS 3 Xrotation Yrotation Zrotation
			JOINT LeftLeg
			{
				OFFSET 0.524474 -46.096886 9.782700
				CHANNELS 3 Xrotation Yrotation Zrotation
				JOINT LeftFoot
				{
					OFFSET -0.524474 -53.427422 -12.948200
					CHANNELS 3 Xrotation Yrotation Zrotation
					JOINT LeftToeBase
					{
						OFFSET 0.192200 -14.009700 16.364100
						CHANNELS 3 Xrotation Yrotation Zrotation
						JOINT LeftToe_End
						{
							OFFSET -1.784700 -0.561700 9.474800
							CHANNELS 3 Xrotation Yrotation Zrotation
							End Site
							{
								OFFSET 0 0 0
							}
						}
					}
				}
			}
		}
	}
	JOINT RightUpLeg_virtual
	{
		OFFSET 0.000000 0.000000 0.000000
		CHANNELS 3 Xrotation Yrotation Zrotation
		JOINT RightUpLeg
		{
			OFFSET -12.883000 -6.336304 -1.092800
			CHANNELS 3 Xrotation Yrotation Zrotation
			JOINT RightLeg
			{
				OFFSET -0.524587 -46.096825 9.782800
				CHANNELS 3 Xrotation Yrotation Zrotation
				JOINT RightFoot
				{
					OFFSET 0.524587 -53.427383 -12.948300
					CHANNELS 3 Xrotation Yrotation Zrotation
					JOINT RightToeBase
					{
						OFFSET -0.192200 -14.009700 16.364100
						CHANNELS 3 Xrotation Yrotation Zrotation
						JOINT RightToe_End
						{
							OFFSET 1.784700 -0.561700 9.474800
							CHANNELS 3 Xrotation Yrotation Zrotation
							End Site
							{
								OFFSET 0 0 0
							}
						}
					}
				}
			}
		}
	}
	JOINT Spine_virtual
	{
		OFFSET 0.000000 0.000000 0.000000
		CHANNELS 3 Xrotation Yrotation Zrotation
		JOINT Spine
		{
			OFFSET 0.072000 7.257294 -0.789700
			CHANNELS 3 Xrotation Yrotation Zrotation
			JOINT Spine1
			{
				OFFSET 0.000000 12.508769 -0.658067
				CHANNELS 3 Xrotation Yrotation Zrotation
				JOINT Spine1_split
				{
					OFFSET 0.000000 12.508769 -0.658067
					CHANNELS 3 Xrotation Yrotation Zrotation
					JOINT Spine2
					{
						OFFSET 0.000000 12.508769 -0.658067
						CHANNELS 3 Xrotation Yrotation Zrotation
						JOINT Neck_virtual
						{
							OFFSET 0.000000 0.000000 0.000000
							CHANNELS 3 Xrotation Yrotation Zrotation
							JOINT Neck
							{
								OFFSET 0.000000 14.033295 7.520400
								CHANNELS 3 Xrotation Yrotation Zrotation
								JOINT Head
								{
									OFFSET 0.000000 8.198502 5.703100
									CHANNELS 3 Xrotation Yrotation Zrotation
									JOINT HeadTop_End
									{
										OFFSET 0.000000 17.760803 13.332701
										CHANNELS 3 Xrotation Yrotation Zrotation
										End Site
										{
											OFFSET 0 0 0
										}
									}
								}
							}
						}
						JOINT LeftShoulder_virtual
						{
							OFFSET 0.000000 0.000000 0.000000
							CHANNELS 3 Xrotation Yrotation Zrotation
							JOINT LeftShoulder
							{
								OFFSET 6.292450 5.785301 -0.669000
								CHANNELS 3 Xrotation Yrotation Zrotation
								JOINT LeftShoulder_split
								{
									OFFSET 6.292450 5.785301 -0.669000
									CHANNELS 3 Xrotation Yrotation Zrotation
									JOINT LeftArm
									{
										OFFSET 13.907140 -6.093903 1.965100
										CHANNELS 3 Xrotation Yrotation Zrotation
										JOINT LeftForeArm
										{
											OFFSET 34.140198 0.000000 0.000000
											CHANNELS 3 Xrotation Yrotation Zrotation
											JOINT LeftHand
											{
												OFFSET 40.960209 0.000000 0.000000
												CHANNELS 3 Xrotation Yrotation Zrotation
												End Site
												{
													OFFSET 0 0 0
												}
											}
										}
									}
								}
							}
						}
						JOINT RightShoulder_virtual
						{
							OFFSET 0.000000 0.000000 0.000000
							CHANNELS 3 Xrotation Yrotation Zrotation
							JOINT RightShoulder
							{
								OFFSET -6.292450 5.785301 -0.669000
								CHANNELS 3 Xrotation Yrotation Zrotation
								JOINT RightShoulder_split
								{
									OFFSET -6.292450 5.785301 -0.669000
									CHANNELS 3 Xrotation Yrotation Zrotation
									JOINT RightArm
									{
										OFFSET -13.907140 -6.093903 1.965100
										CHANNELS 3 Xrotation Yrotation Zrotation
										JOINT RightForeArm
										{
											OFFSET -34.140198 0.000000 0.000000
											CHANNELS 3 Xrotation Yrotation Zrotation
											JOINT RightHand
											{
												OFFSET -40.960209 0.000000 0.000000
												CHANNELS 3 Xrotation Yrotation Zrotation
												End Site
												{
													OFFSET 0 0 0
												}
											}
										}
									}
								}
							}
						}
					}
				}
			}
		}
	}
}
MOTION
Frames: 4
Frame Time: 0.03333333
0.109717 134.250885 -0.335457 0.000000 0.000000 0.000000 -89.648562 0.358332 0.721978 -5.172227 17.352871 19.148049 4.131935 7.439941 0.328678 29.612371 29.470405 -30.980143 -4.397756 0.000008 -0.000015 0.000000 0.000000 0.000000 -89.648562 0.358332 0.721978 -4.355188 -17.130825 -12.371302 3.268978 -7.172429 -7.616808 38.788033 -29.663313 30.901839 -9.126062 0.000005 -0.000016 0.000000 0.000000 0.000000 -89.648562 0.358332 0.721978 1.066779 -1.178770 0.953538 -0.317547 -2.434543 0.230484 0.000000 0.000000 0.000000 0.000000 0.000000 0.000000 -0.303419 -2.418347 0.331942 -10.007545 0.108424 -1.808069 8.693202 -2.170252 1.510697 0.000000 0.000000 0.000000 -0.303419 -2.418347 0.331942 0.422254 -0.102940 -3.997470 0.000000 0.000000 0.000000 35.266548 -28.376685 -54.536964 -0.000189 -80.459622 -0.000200 0.000000 0.000000 0.000000 -0.303419 -2.418347 0.331942 0.672259 1.791886 13.905692 0.000000 0.000000 0.000000 39.524444 30.882058 33.636349 179.999800 78.646637 -179.999814 0.000000 0.000000 0.000000 
0.109133 134.254974 -0.314850 0.000000 0.000000 0.000000 -89.647080 0.357315 0.721662 -5.154487 17.326807 19.174136 4.237435 7.466235 0.287165 29.668173 29.465064 -30.951627 -4.495494 0.000003 0.000008 0.000000 0.000000 0.000000 -89.647080 0.357315 0.721662 -4.391086 -17.125654 -12.351830 3.350336 -7.162703 -7.672792 38.650514 -29.708225 30.890839 -9.020926 -0.000006 -0.000002 0.000000 0.000000 0.000000 -89.647080 0.357315 0.721662 1.073670 -1.496561 0.956169 -0.122009 -3.167864 0.318246 0.000000 0.000000 0.000000 0.000000 0.000000 0.000000 -0.192736 -2.885990 0.467762 -10.438604 0.101445 -1.869203 8.494244 -2.149574 1.244425 0.000000 0.000000 0.000000 -0.192736 -2.885990 0.467762 0.143295 2.780179 -4.408304 0.000000 0.000000 0.000000 35.798084 -29.342127 -53.527991 0.000063 -80.441132 0.000094 0.000000 0.000000 0.000000 -0.192736 -2.885990 0.467762 0.595532 2.019713 13.895002 0.000000 0.000000 0.000000 37.989399 32.092306 32.256337 179.999909 78.039938 -179.999855 0.000000 0.000000 0.000000 
0.075912 134.260635 -0.279037 0.000000 0.000000 0.000000 -89.634417 0.300654 0.748742 -5.163043 17.312351 19.203517 4.350180 7.521216 0.219734 29.717340 29.464046 -30.970410 -4.584122 0.000005 0.000012 0.000000 0.000000 0.000000 -89.634417 0.300654 0.748742 -4.464994 -17.108273 -12.303973 3.533677 -7.120152 -7.795190 38.235939 -29.818471 30.818292 -8.737368 0.000009 -0.000022 0.000000 0.000000 0.000000 -89.634417 0.300654 0.748742 0.973697 -1.726334 0.927257 0.194116 -3.606526 0.416353 0.000000 0.000000 0.000000 0.000000 0.000000 0.000000 0.025596 -3.299262 0.562686 -10.333467 0.079275 -1.949323 8.269066 -2.095622 0.548456 0.000000 0.000000 0.000000 0.025596 -3.299262 0.562686 -0.239440 3.890322 -4.805997 0.000000 0.000000 0.000000 36.148134 -29.060426 -53.421621 -0.000072 -80.642350 -0.000110 0.000000 0.000000 0.000000 0.025596 -3.299262 0.562686 0.496194 2.314829 13.881618 0.000000 0.000000 0.000000 34.462495 33.833929 31.298150 -179.999841 77.311717 179.999841 0.000000 0.000000 0.000000 
0.019403 134.294006 -0.254906 0.000000 0.000000 0.000000 -89.612096 0.136359 0.808561 -5.181859 17.329331 19.221283 4.401328 7.606752 0.124825 29.602019 29.468984 -31.004093 -4.577276 -0.000013 0.000015 0.000000 0.000000 0.000000 -89.612096 0.136359 0.808561 -4.572702 -17.081378 -12.265827 3.726138 -7.093674 -7.941396 37.745022 -29.839645 30.689710 -8.450208 -0.000002 0.000001 0.000000 0.000000 0.000000 -89.612096 0.136359 0.808561 0.874142 -1.800507 0.863286 0.768287 -3.725309 0.515754 0.000000 0.000000 0.000000 0.000000 0.000000 0.000000 0.446249 -3.410711 0.585426 -10.114586 0.045414 -2.073424 7.592116 -1.998999 -0.471706 0.000000 0.000000 0.000000 0.446249 -3.410711 0.585426 -0.247528 3.634491 -5.320403 0.000000 0.000000 0.000000 35.720496 -28.101299 -53.559236 0.000507 -80.968409 0.000510 0.000000 0.000000 0.000000 0.446249 -3.410711 0.585426 0.335286 2.897682 13.887841 0.000000 0.000000 0.000000 29.551356 35.490346 31.411763 179.999991 77.256208 179.999991 0.000000 0.000000 0.000000 
